HIERARCHY
ROOT hip
{
  OFFSET 0.0 0.0 0.0
  CHANNELS 6 Xposition Yposition Zposition Zrotation Yrotation Xrotation
  JOINT torso
  {
    OFFSET 0.0 0.0 0.0
    CHANNELS 3 Zrotation Xrotation Yrotation
    JOINT neck
    {
      OFFSET -20.11218299999996 327.95800799999995 66.30578600000035
      CHANNELS 3 Zrotation Xrotation Yrotation
      JOINT head
      {
        OFFSET 18.28939800000012 288.83178699999996 217.81652800000006
        CHANNELS 3 Zrotation Xrotation Yrotation
        End Site
        {
          OFFSET 0.0 0.0 0.0
        }
      }
    }
    JOINT left_collar
    {
      OFFSET -20.11218299999996 327.95800799999995 66.30578600000035
      CHANNELS 3 Zrotation Xrotation Yrotation
      JOINT left_upper_arm
      {
        OFFSET -127.08163400000001 -16.17407199999991 15.44799799999987
        CHANNELS 3 Zrotation Xrotation Yrotation
        JOINT left_forearm
        {
          OFFSET -234.267792 45.78796399999999 109.31286600000021
          CHANNELS 3 Zrotation Xrotation Yrotation
          JOINT left_hand
          {
            OFFSET -259.114014 -33.25433399999997 16.18847699999992
            CHANNELS 3 Zrotation Xrotation Yrotation
            End Site
            {
              OFFSET 0.0 0.0 0.0
            }
          }
        }
      }
    }
    JOINT right_collar
    {
      OFFSET -20.11218299999996 327.95800799999995 66.30578600000035
      CHANNELS 3 Zrotation Xrotation Yrotation
      JOINT right_upper_arm
      {
        OFFSET 164.513184 1.5733030000000099 4.892333999999892
        CHANNELS 3 Zrotation Xrotation Yrotation
        JOINT right_forearm
        {
          OFFSET 260.742027 48.718444999999974 144.35229500000014
          CHANNELS 3 Zrotation Xrotation Yrotation
          JOINT right_hand
          {
            OFFSET 287.85150899999996 -44.57171600000015 13.96813899999961
            CHANNELS 3 Zrotation Xrotation Yrotation
            End Site
            {
              OFFSET 0.0 0.0 0.0
            }
          }
        }
      }
    }
  }
}
MOTION
Frames: 6
Frame Time: 0.01
-307.0559967953157 184.86104920571583 797.4165016290054 14.300210618041783 -34.21195002194129 -42.37493032024693 0.43658143268572025 -0.13933694195111457 -0.09734200464109655 -5.8145917481067535 10.86395151464218 3.3990968085757736 0.0 0.0 0.0 4.115137119005164 -0.8611789331958232 8.351304644444484 0.9708166631631753 -20.255877425595333 -68.15686000988316 -15.270103394580483 -0.9546573707668611 -1.8283558381631748 0.0 0.0 0.0 -1.0861096764758078 0.032511830830781976 -2.804890286068896 -22.80363119859252 36.19805204949126 98.57573690059633 6.613198606904369 1.3220574364402788 16.83223769659302 0.0 0.0 0.0
-307.12646854252716 184.87745253767025 797.4180132870823 14.287476469767887 -34.2109705899875 -42.37624474122134 0.4443168850002255 -0.1353122882838518 -0.09865404201638363 -5.807968092633779 10.875024568926378 3.393249797089811 0.0 0.0 0.0 4.119337432014154 -0.8566405894560606 8.324600041857252 0.9553958884569261 -20.26780327165189 -68.13219223292644 -15.250822574446207 -0.9530480532007776 -1.809045243579169 0.0 0.0 0.0 -1.0873023824202348 0.03251816374990915 -2.805975317495208 -22.787347337271147 36.151019823493954 98.59210411755535 6.63334667431479 1.3209021687841096 16.860861496366812 0.0 0.0 0.0
-307.1951506386162 184.89270998297485 797.4226878552721 14.269665144294528 -34.216746617548445 -42.379007263509095 0.4588195880410769 -0.12546340150521165 -0.10096244643880584 -5.802283173405742 10.886786971908796 3.388006099972862 0.0 0.0 0.0 4.1215921846956975 -0.8525677380029527 8.300199066614043 0.9381609784171298 -20.282798808513697 -68.10764580310571 -15.232622143135071 -0.9515305420524419 -1.7900634809619473 0.0 0.0 0.0 -1.0882070423434307 0.03252296261247781 -2.8069776572152194 -22.769944074475095 36.103818061263745 98.6125917044123 6.655316681859064 1.3192152682868301 16.887884470410654 0.0 0.0 0.0
-307.2621729036299 184.90646550404296 797.4313679599267 14.24764728612427 -34.22939283527277 -42.38395937895321 0.4796384680930597 -0.10962316926636315 -0.10416085771732211 -5.797850394332382 10.899145923051687 3.383599075361753 0.0 0.0 0.0 4.121781645895786 -0.8490884870398574 8.278845684117229 0.9191078916940935 -20.300970795946863 -68.08340764682642 -15.215838369427521 -0.9501311306356103 -1.7716052498995247 0.0 0.0 0.0 -1.0888214864479666 0.032526210911536374 -2.8076195264739043 -22.751425954198677 36.056808884841 98.63755123788975 6.679087739357011 1.31695960502205 16.912893476875478 0.0 0.0 0.0
-307.32768624667017 184.91840119456384 797.4449351091989 14.222414477311274 -34.24891287439737 -42.39183396506463 0.5061711689196821 -0.08772179318060969 -0.10811676294086114 -5.794965408970347 10.91199264411214 3.380250888264521 0.0 0.0 0.0 4.119846295216189 -0.8463174721985469 8.261220095717682 0.8982504293480197 -20.32236968196764 -68.05961641899104 -15.200790396213385 -0.9488744715186616 -1.7538608493716896 0.0 0.0 0.0 -1.089141136553934 0.03252787957715857 -2.80758488959746 -22.73182469084608 36.0103373873245 98.6672165927242 6.704601710229436 1.3141125928161392 16.935541764313797 0.0 0.0 0.0
-307.39186255391314 184.928239892425 797.4643035221359 14.19504634133333 -34.27520053439032 -42.40333444280464 0.5376858496808143 -0.059787977658369434 -0.1126764369255774 -5.793896626081755 10.925203792397333 3.378165588256066 0.0 0.0 0.0 4.115787681946094 -0.8443526406080812 8.247920472586385 0.8756209577603971 -20.346986686553972 -68.03635925262907 -15.187772701811047 -0.947783043329413 -1.7370132777203986 0.0 0.0 0.0 -1.0891579496419745 0.0325279147007618 -2.806529010045965 -22.711200250673798 35.96472492916002 98.70169183484659 6.731762021295591 1.3106675905565754 16.95556059672611 0.0 0.0 0.0
